<svg width="current" height="current" viewBox="0 0 84 52" fill="none" xmlns="http://www.w3.org/2000/svg">
    <path d="m66.083 23.806 4.752-6.507 4.736 4.844 6.195-1.075-10.931-11.16-10.932 14.973 6.18-1.075zM44.221 20.186V15.99l-15.057 2.62v4.211l2.219-.383v10.688l-2.22.383v4.196l15.058-2.62v-4.196l-2.19.382V20.583l2.19-.397zm-6.628 11.851-1.787.31V21.657l1.787-.31v10.689zM56.356 32.962v-19.08l-4.573.796v7.199l-1.727.309v-7.2l-4.528.781v19.08l4.528-.78v-7.788l1.727-.31v7.788l4.573-.795zM16.13 32.048l10.426-1.81V25.54l-10.425 1.826v4.681z" fill="#002147"/>
    <path d="m4.677 31.858 8.027 8.745 5.794-1.016-8.787-9.274L18.2 19.02l-5.764 1-7.76 10.645V21.73c.03-2.017 1.713-3.813 3.918-4.21L78.58 5.345A5.426 5.426 0 0 0 83.076 0L8.594 12.955c-4.662.81-8.356 4.83-8.58 9.26H0v20.611l4.662-.81V31.859h.015zM78.326 24.823l-19.66 3.43v4.285l19.66-3.43v1.089c0 2.046-1.683 3.872-3.917 4.27L4.556 46.602A5.478 5.478 0 0 0 .016 52L74.409 39.09c4.81-.84 8.579-5.094 8.579-9.687v-5.374l-4.662.795z" fill="#002147"/>
</svg>